<svg width="64" height="64" viewBox="0 0 64 64" fill="none" xmlns="http://www.w3.org/2000/svg">
<path d="M62.2745 27.8369C62.273 27.8354 62.2715 27.834 62.2701 27.8325L36.1631 1.72656C35.0504 0.613281 33.5709 0 31.9971 0C30.4234 0 28.9439 0.612793 27.8306 1.72607L1.73737 27.8188C1.72858 27.8276 1.71979 27.8369 1.711 27.8457C-0.574153 30.144 -0.570247 33.873 1.72223 36.1655C2.7696 37.2134 4.1529 37.8203 5.6319 37.8838C5.69196 37.8896 5.75251 37.8926 5.81354 37.8926H6.85407V57.105C6.85407 60.9067 9.94733 64 13.7501 64H23.9639C24.9991 64 25.8389 63.1606 25.8389 62.125V47.0625C25.8389 45.3276 27.2501 43.9165 28.9849 43.9165H35.0093C36.7442 43.9165 38.1553 45.3276 38.1553 47.0625V62.125C38.1553 63.1606 38.9947 64 40.0303 64H50.2442C54.0469 64 57.1402 60.9067 57.1402 57.105V37.8926H58.105C59.6783 37.8926 61.1578 37.2798 62.2715 36.1665C64.5665 33.8701 64.5674 30.1348 62.2745 27.8369Z" fill="#F9F9FF"/>
</svg>
